<svg xmlns="http://www.w3.org/2000/svg" xmlns:xlink="http://www.w3.org/1999/xlink" aria-hidden="true" role="img" class="iconify iconify--logos" width="128" height="128" preserveAspectRatio="xMidYMid meet" viewBox="0 0 256 257"><defs><linearGradient id="IconifyId1813088fe1fbc01fb466" x1="-.828%" x2="57.636%" y1="7.652%" y2="78.411%"><stop offset="0%" stop-color="#41D1FF"></stop><stop offset="100%" stop-color="#BD34FE"></stop></linearGradient><linearGradient id="IconifyId1813088fe1fbc01fb467" x1="43.376%" x2="50.316%" y1="2.242%" y2="89.03%"><stop offset="0%" stop-color="#FFBD4F"></stop><stop offset="100%" stop-color="#FF9640"></stop></linearGradient></defs><path fill="url(#IconifyId1813088fe1fbc01fb466)" d="M255.153 37.938L134.897 252.976c-2.483 4.44-8.862 4.466-11.382.048L.875 37.958c-2.746-4.814 1.371-10.646 6.827-9.67l120.385 21.517a6.537 6.537 0 0 0 2.322-.004l117.867-21.483c5.438-.991 9.574 4.796 6.877 9.62Z"></path><path fill="url(#IconifyId1813088fe1fbc01fb467)" d="M185.432.063L96.44 17.501a3.268 3.268 0 0 0-2.634 3.012l-5.474 92.456a3.268 3.268 0 0 0 3.997 3.378l24.777-5.718c2.318-.535 4.413 1.507 3.916 3.818l-7.361 34.257c-.495 2.306 1.592 4.345 3.905 3.82l25.822-5.873c2.312-.525 4.402 1.518 3.904 3.826l-11.69 54.282c-.722 3.353 3.783 5.44 5.994 2.815l74.659-89.108c1.992-2.376.375-5.902-2.687-5.902h-26.76a3.268 3.268 0 0 1-3.236-2.774l-9.329-54.877c-.515-3.009-3.626-4.832-6.488-3.804l-24.846 8.938c-2.31.832-4.622-1.133-4.163-3.526l12.306-64.22c.468-2.433-1.923-4.468-4.147-3.506Z"></path></svg>
